<svg xmlns="http://www.w3.org/2000/svg" viewBox="0 0 64 64" width="48" height="48" overflow="visible" opacity="1"><defs><filter id="chanRed"><feColorMatrix type="matrix" values="1 0 0 0 0 1 0 0 0 0 1 0 0 0 0 0 0 0 1 0"></feColorMatrix></filter><filter id="chanGrn"><feColorMatrix type="matrix" values="0 1 0 0 0 0 1 0 0 0 0 1 0 0 0 0 0 0 1 0"></feColorMatrix></filter><filter id="chanBlu"><feColorMatrix type="matrix" values="0 0 1 0 0 0 0 1 0 0 0 0 1 0 0 0 0 0 1 0"></feColorMatrix></filter><mask id="effectMask#hellpad/planets/gaellivare2616"><rect width="64" height="64" fill="#fff"></rect><path d="M0,0V64H64V0ZM59,47,32,63,5,47V17L32,1,59,17Z" fill="#000"></path></mask><mask id="iconMask#hellpad/planets/gaellivare2616"><image href="https://helldiverscompanion.com/_app/immutable/assets/atlas_tags.BxPc2NCK.png" width="640" height="640" x="0" y="0" filter="url(#chanGrn)"></image><path d="M0,0V64H64V0ZM56,46,32,60,8,46V19L32,5,56,19Z"></path><path d="M0,0V64H64V0ZM59,47,32,63,5,47V17L32,1,59,17Z"></path></mask><mask id="iconShadowMask#hellpad/planets/gaellivare2616"><image href="https://helldiverscompanion.com/_app/immutable/assets/atlas_tags.BxPc2NCK.png" width="640" height="640" x="0" y="0" ></image><path d="M0,0V64H64V0ZM56,46,32,60,8,46V19L32,5,56,19Z"></path><path d="M0,0V64H64V0ZM59,47,32,63,5,47V17L32,1,59,17Z"></path><path id="HEX_EDGE" d="M32,0,4,16V48L32,64,60,48V16ZM56,45.5l-24,14L8,45.5v-27l24-14,24,14Z"></path></mask></defs><circle id="ENV_DROP" cx="32" cy="32" r="28" fill="#000" stroke-width="5.6" stroke="#000" opacity="0.1536"></circle><circle id="ENV_BACK" cx="32" cy="32" r="28" fill="#3f3f3f" opacity="1"></circle><circle id="ENV_EDGE" cx="32" cy="32" r="26" fill="none" stroke-width="4" stroke="#c0bfac" opacity="0"></circle><text id="DRC_DROP_1" transform="translate(23.2 41) scale(1.32)" fill="#000" stroke-width="5.6" stroke="#000" opacity="0.32" font-size="22" font-family="HCSinclair-Bold, HC Sinclair" font-weight="700" letter-spacing="-0.06em"></text><text id="DRC_TEXT_1" transform="translate(23.2 41) scale(1.32)" fill="#fff" opacity="1" font-size="22" font-family="HCSinclair-Bold, HC Sinclair" font-weight="700" letter-spacing="-0.06em"></text></svg>